<?xml version="1.0" encoding="UTF-8"?>
<svg id="Calque_3" data-name="Calque 1" xmlns="http://www.w3.org/2000/svg" viewBox="0 0 455.99 738.42">
  <defs>
    <style>
      .cls-1 {
        fill: white;
      }
    </style>
  </defs>
  <path class="cls-1" d="M455.85,716.21c-.56-4.33-1.39-8.64-1.76-12.99-2.74-32.13-5.62-64.25-7.99-96.41-1.37-18.56-5.94-35.72-17.06-51.04-6.74-9.29-9.42-20.21-7.93-31.65,1.6-12.26,4.06-24.4,6.01-36.61,3.21-20.12,7.81-40.16,9.14-60.41,2.53-38.57-25.06-74.17-62.81-82.44-22.93-5.02-46.12-8.8-69.24-12.95-11.82-2.12-23.73-3.76-35.59-5.71-6.25-1.03-8.89-3.75-8.78-8.54,.11-4.85,3.66-6.28,7.36-7.61,23.28-8.4,46.71-16.43,69.82-25.28,43.19-16.55,65.73-62.13,51.18-104.15-5.66-16.33-5.23-31.59,1.96-47.13,5.36-11.58,7.67-23.95,6.72-36.72-1.35-18.17-2.94-36.32-4.56-54.47-.84-9.43-1.79-18.86-3.02-28.25-1.01-7.71-6.94-13.21-14.09-13.7-6.96-.48-14.08,4.62-15.78,11.78-.66,2.77-.58,5.8-.33,8.67,2.02,23.05,3.78,46.13,6.42,69.11,1.46,12.71,0,24.51-5.08,36.23-5.64,13.02-8.86,26.64-6.17,40.99,1.47,7.85,3.08,15.69,4.98,23.45,7.36,30.02-5.66,55.09-34.49,66.05-3.4,1.29-6.87,2.41-10.3,3.63-17.13,6.13-34.24,12.34-51.4,18.38-7.01,2.47-12.04-1.26-10.37-7.97,.56-2.25,3.39-4.68,5.74-5.6,15.08-5.91,30.3-11.44,45.49-17.06,5.46-2.02,11.03-3.76,16.41-5.99,22.29-9.26,31.02-28.11,23.29-50.98-7.52-22.25-8.18-44.39,.95-66.19,4.76-11.36,7.02-22.54,5.61-35-2.65-23.34-4.02-46.83-6.22-70.23-.99-10.52-7.37-15.71-17.09-14.82-8.84,.81-13.98,7.05-13.2,17.32,1.77,23.44,3.69,46.87,6.13,70.24,.67,6.43,.04,12.19-2.32,18.07-12.11,30.12-12.51,60.62-2.55,91.37,1.95,6.04,.73,9.45-5.11,11.63-18.24,6.83-36.57,13.41-54.83,20.2-4.52,1.68-7.57-.04-9.54-3.8-2.05-3.92-.37-7.04,3.2-9.23,4.66-2.86,9.42-5.54,14.01-8.51,14.29-9.26,22.71-22.47,24.97-39.25,1.11-8.27,.94-16.71,1.35-25.07-.13,0-.26,0-.38-.02,0-4.92,.04-9.85,0-14.77-.14-16.27-6.4-30.06-17.18-41.98-4.65-5.15-11.01-5.9-16.57-3.66-3.84,1.54-7.5,5.83-9.22,9.77-2.39,5.46,0,10.84,3.7,15.68,3.04,3.98,7,8.44,7.45,12.99,1.24,12.46,1.19,25.09,.77,37.63-.08,2.3-3.96,5.65-6.67,6.4-3.56,.98-6.5-1.81-7.48-5.62-.44-1.73-.47-3.6-.48-5.41-.04-8.75,.11-17.51-.05-26.26-.19-10.07-7.86-16.47-17.79-15.09-7.6,1.06-12.58,7.43-12.71,16.67-.13,9.11,.11,18.23-.06,27.35-.1,5.63-3.17,8.86-7.66,8.68-4.28-.17-6.85-3.3-6.92-8.78-.1-7.11,.36-14.25-.11-21.33-.73-10.93,1.9-20.24,9.46-28.58,6.19-6.82,4.88-16.48-1.75-21.93-6.26-5.15-15.65-4.34-21.67,2.16-7.96,8.6-14.14,18.5-15.21,30.26-1.23,13.56-1.45,27.26-1.21,40.88,.46,26.68,13.32,45.48,37.59,56.53,5.7,2.6,7.16,5.46,5.3,10.1-1.86,4.65-4.53,5.65-10.74,3.43-17.13-6.15-34.22-12.4-51.3-18.69-8.89-3.28-9.65-5.22-6.9-14.31,8.41-27.78,9.81-55.5-1.33-82.96-3.87-9.54-4.81-19.29-3.77-29.47,2.21-21.57,4.29-43.15,6.13-64.75,.82-9.57-5.84-17.65-14.18-18.11-9.03-.5-15.94,6.47-16.73,16.52-1.58,20.16-2.83,40.36-5.13,60.44-1.79,15.67-1.43,30.67,4.83,45.5,3,7.12,4.63,14.97,5.83,22.65,2.42,15.49-1.46,30.34-5.63,45.15-5.38,19.1,1.13,34.74,18.31,44.48,4.25,2.41,8.87,4.23,13.47,5.93,18.09,6.69,36.27,13.14,54.35,19.85,6.69,2.48,8.49,8.54,3.46,12.4-2.08,1.59-6.28,1.96-8.89,1.07-19.29-6.57-38.45-13.54-57.59-20.52-10.53-3.84-20.48-8.79-27.77-17.71-12.35-15.1-16.02-32.14-9.93-50.73,7.67-23.4,6.75-46.01-3.28-68.66-2.91-6.58-4.19-14.53-3.91-21.76,.66-17.28,2.69-34.5,4.18-51.74,.88-10.17,2.08-20.31,2.57-30.5C96.63,7.16,90.14,.25,81.26,0c-7.71-.21-13.95,6.25-14.77,15.14-2.01,21.77-3.56,43.6-6.28,65.28-2.57,20.54-1.34,40.26,7.49,59.27,1.73,3.73,2.56,7.96,3.36,12.04,2.27,11.58-1.89,22.29-4.73,33.19-11.17,42.78,11.28,84.94,53.03,99.78,12.35,4.39,24.72,8.7,37.02,13.22,11.1,4.08,22.24,8.1,33.09,12.8,2.69,1.16,6.25,5.15,5.9,7.27-.45,2.74-4.37,4.94-6.89,7.28-.48,.45-1.34,.55-2.05,.68-17.03,3.02-34.07,5.95-51.08,9.06-19.33,3.53-38.94,6.06-57.87,11.09-36.08,9.6-61.7,46.18-57.85,83.32,2.73,26.38,7.28,52.67,12.68,78.66,4.1,19.77,2.3,37.41-9.56,54.01-7.12,9.97-10.73,21.52-11.92,33.65-2.29,23.39-4.28,46.81-6.36,70.22-1.52,17.06-3.23,34.1-4.43,51.18-.65,9.33,6.07,16.67,14.7,17.13,8.31,.44,15.28-6.17,16.03-15.2,2.85-34.31,5.84-68.61,8.49-102.93,1.32-17.15,5.35-32.95,15.06-47.74,9.83-14.98,13.22-32.37,10.29-50.32-4.37-26.76-9.01-53.49-13.96-80.15-5.23-28.14,8.35-53.38,34.11-61.85,6.02-1.98,12.33-3.18,18.59-4.34,29.53-5.45,59.08-10.85,88.65-16.06,6.37-1.12,10,1.34,10.81,6.26,.73,4.44-2.2,7.67-8.18,9.01-.71,.16-1.44,.22-2.16,.35-32.62,5.78-65.27,11.34-97.83,17.42-19.34,3.62-32.13,21.04-29.34,40.43,3.4,23.59,8.01,47,11.68,70.56,1.76,11.31,3.96,22.83,3.47,34.15-.78,17.87-7.24,34.3-16.72,49.67-3.71,6.02-5.94,13.24-7.52,20.21-1.69,7.41-1.95,15.16-2.59,22.79-2.53,30.14-5,60.29-7.38,90.44-.28,3.59-.54,7.4,.35,10.8,1.75,6.72,8.27,10.94,14.87,10.52,7.11-.46,12.98-5.26,14.17-12.2,.83-4.83,.96-9.77,1.39-14.67,2.04-23.41,4.1-46.83,6.11-70.24,1.63-19,2.24-37.91,12.83-55.18,14.82-24.16,17.51-51.17,13.42-78.69-3.74-25.19-8.79-50.19-13.2-75.28-1.94-11.04-.58-12.94,10.61-14.93,22.22-3.96,44.45-7.89,66.69-11.76,9.15-1.59,18.32-3.04,27.5-4.48,4.32-.67,8.4,.04,9.71,4.81,1.25,4.55-1.23,7.64-5.43,9.4-.84,.35-1.68,.7-2.51,1.07-10.49,4.63-21.19,8.84-31.42,13.98-21.42,10.78-35.7,27.73-40,51.57-2.31,12.8-3.22,25.99-3.37,39.02-.39,34.4,12.21,64.13,35.12,89.35,31.01,34.14,78.78,39.4,115.13,12.7,22.09-16.23,35.42-38.82,43.67-64.55,6.21-19.38,6.63-39.28,5.38-59.46-1.74-28.16-12.77-50.88-37.5-65.23-12.36-7.17-25.88-12.37-38.98-18.23-4.48-2-6.92-5-5.66-9.77,1.3-4.92,5.46-5.4,9.71-4.66,32.81,5.73,65.61,11.49,98.41,17.33,6.13,1.09,8.06,4.3,6.95,10.59-3.25,18.46-6.58,36.91-9.7,55.39-2.09,12.38-4.82,24.74-5.65,37.22-1.76,26.53,4.98,51.16,18.47,74.14,3.49,5.95,6.05,12.9,7.16,19.7,1.67,10.21,1.58,20.69,2.44,31.04,2.17,25.96,4.29,51.93,6.89,77.85,.36,3.61,2.61,7.73,5.27,10.26,4.67,4.45,10.6,5.31,16.68,2.13,6.06-3.18,8.4-8.31,7.88-14.92-2.77-34.87-5.36-69.76-8.47-104.6-1.05-11.71-2.1-23.61-9.23-33.85-16.09-23.1-18.52-49.11-14.7-75.92,3.21-22.51,6.99-45,11.93-67.19,6.48-29.08-8.97-49.59-35.72-53.34-24.69-3.46-49.2-8.23-73.78-12.43-6.46-1.11-12.94-2.11-19.36-3.45-5.49-1.15-8.17-4.66-7.37-9.11,.95-5.3,4.7-6.45,9.36-6.13,1.27,.09,2.55,.21,3.8,.43,30.47,5.38,60.9,11.01,91.41,16.11,33.48,5.6,53.33,31.9,47.94,65.05-3.71,22.81-7.81,45.58-12.54,68.21-5.42,25.96-1.83,49.79,13.37,71.87,3.29,4.78,5.25,10.77,6.61,16.49,1.6,6.69,2.06,13.68,2.7,20.57,3.3,35.37,6.44,70.76,9.85,106.12,.28,2.87,1.68,6,3.49,8.26,4.35,5.43,11.51,6.96,17.24,4.36,6.26-2.84,10.58-10.3,9.72-16.88l-.03,.05Z"/>
</svg>